<svg width="108" height="108" viewBox="0 0 108 108" fill="none" xmlns="http://www.w3.org/2000/svg">
<path fill-rule="evenodd" clip-rule="evenodd" d="M91.512 15.7015C87.5334 11.7229 78.4678 13.6902 67.5293 19.9965C64.2537 7.80192 59.2344 1.03569e-05 53.6076 9.37305e-06C47.981 8.38926e-06 42.9618 7.80144 39.6862 19.9954C28.7482 13.6897 19.6832 11.7227 15.7048 15.7011C11.7259 19.68 13.6937 28.7465 20.0009 39.686C7.8038 42.9615 -8.38933e-06 47.9814 -9.37326e-06 53.6088C-1.0357e-05 59.2353 7.80105 64.2544 19.9945 67.5299C13.6868 78.4699 11.7187 87.5368 15.6977 91.5158C19.6769 95.4949 28.7445 93.5265 39.6851 87.2181C42.9606 99.4144 47.9803 107.218 53.6076 107.218C59.235 107.218 64.2548 99.4139 67.5303 87.217C78.4716 93.526 87.5397 95.4947 91.519 91.5154C95.498 87.5365 93.53 78.4698 87.2226 67.5301C99.4163 64.2546 107.218 59.2354 107.218 53.6088C107.218 47.9813 99.4136 42.9613 87.2162 39.6858C93.5231 28.7466 95.4908 19.6803 91.512 15.7015Z" fill="#565BF1"/>
</svg>
